<svg width="24" height="24" viewBox="0 0 24 24" fill="none" xmlns="http://www.w3.org/2000/svg">
<path d="M14 16C14 14.1144 14 13.1716 14.5858 12.5858C15.1716 12 16.1144 12 18 12C19.8856 12 20.8284 12 21.4142 12.5858C22 13.1716 22 14.1144 22 16C22 17.8856 22 18.8284 21.4142 19.4142C20.8284 20 19.8856 20 18 20C16.1144 20 15.1716 20 14.5858 19.4142C14 18.8284 14 17.8856 14 16Z" fill="#083C2F" stroke="#083C2F" stroke-width="1.5"/>
<path d="M14 17V12.5179C14 8.5453 16.5157 5.1763 20 4" stroke="#083C2F" stroke-width="1.5" stroke-linecap="round"/>
<path d="M2 16C2 14.1144 2 13.1716 2.5858 12.5858C3.1716 12 4.1144 12 6 12C7.8856 12 8.8284 12 9.4142 12.5858C10 13.1716 10 14.1144 10 16C10 17.8856 10 18.8284 9.4142 19.4142C8.8284 20 7.8856 20 6 20C4.1144 20 3.1716 20 2.5858 19.4142C2 18.8284 2 17.8856 2 16Z" fill="#083C2F" stroke="#083C2F" stroke-width="1.5"/>
<path d="M2 17V12.5179C2 8.5453 4.5157 5.1763 8 4" stroke="#083C2F" stroke-width="1.5" stroke-linecap="round"/>
</svg>
