<svg width="225" height="26" viewBox="0 0 225 26" fill="none" xmlns="http://www.w3.org/2000/svg">
<path d="M1.2709 5.03739C0.739264 4.88778 0.187005 5.19747 0.0373919 5.7291C-0.112221 6.26074 0.197468 6.813 0.729102 6.96261L1.2709 5.03739ZM111.812 25L111.81 26L111.812 25ZM224.872 6.48977C225.142 6.00826 224.971 5.39864 224.49 5.12815L216.643 0.7202C216.162 0.449707 215.552 0.620769 215.281 1.10228C215.011 1.58379 215.182 2.19341 215.664 2.4639L222.638 6.38208L218.72 13.3569C218.45 13.8384 218.621 14.448 219.102 14.7185C219.584 14.989 220.193 14.8179 220.464 14.3364L224.872 6.48977ZM1 6C0.729102 6.96261 0.729113 6.96261 0.729126 6.96261C0.729133 6.96262 0.729149 6.96262 0.729164 6.96263C0.729195 6.96263 0.729236 6.96265 0.729288 6.96266C0.72939 6.96269 0.729533 6.96273 0.729717 6.96278C0.730085 6.96288 0.730616 6.96303 0.731309 6.96323C0.732696 6.96362 0.734732 6.96419 0.737416 6.96494C0.742783 6.96645 0.750739 6.96869 0.761262 6.97163C0.782307 6.97753 0.813619 6.9863 0.855022 6.99785C0.937828 7.02097 1.061 7.05525 1.22313 7.10012C1.54738 7.18985 2.02748 7.32193 2.65216 7.49167L3.1766 5.56166C2.55503 5.39276 2.07793 5.2615 1.75656 5.17257C1.59588 5.1281 1.47413 5.09421 1.39271 5.07149C1.35201 5.06012 1.32138 5.05155 1.30102 5.04585C1.29084 5.04299 1.28323 5.04086 1.2782 5.03944C1.27569 5.03874 1.27382 5.03821 1.2726 5.03787C1.27199 5.0377 1.27154 5.03757 1.27126 5.03749C1.27112 5.03745 1.27102 5.03743 1.27096 5.03741C1.27093 5.0374 1.27091 5.03739 1.2709 5.03739C1.27089 5.03739 1.27089 5.03739 1.27089 5.03739C1.27089 5.03739 1.2709 5.03739 1 6ZM6.54041 8.53062C7.69185 8.83371 8.99791 9.1738 10.4435 9.54462L10.9404 7.60734C9.49909 7.23761 8.19709 6.89858 7.04952 6.59651L6.54041 8.53062ZM14.3709 10.5399C15.606 10.8492 16.9105 11.1724 18.2784 11.507L18.7536 9.56433C17.3894 9.2306 16.0884 8.90826 14.8568 8.59985L14.3709 10.5399ZM22.189 12.4526C23.4556 12.7553 24.7646 13.0646 26.1122 13.379L26.5666 11.4314C25.2226 11.1178 23.9171 10.8093 22.6539 10.5074L22.189 12.4526ZM30.0419 14.2848C31.3256 14.577 32.6381 14.8721 33.9763 15.169L34.4095 13.2165C33.0749 12.9204 31.7661 12.6261 30.4858 12.3347L30.0419 14.2848ZM37.9155 16.0313C39.2109 16.311 40.5264 16.5912 41.8599 16.871L42.2706 14.9136C40.9411 14.6347 39.6293 14.3553 38.3376 14.0764L37.9155 16.0313ZM45.8099 17.6874C47.1149 17.953 48.4342 18.2173 49.7657 18.4795L50.1521 16.5172C48.8249 16.2558 47.5098 15.9923 46.2087 15.7276L45.8099 17.6874ZM53.7274 19.2461C55.0407 19.4957 56.3637 19.7425 57.6944 19.9858L58.054 18.0184C56.728 17.776 55.4097 17.53 54.1007 17.2813L53.7274 19.2461ZM61.6635 20.6964C62.983 20.9275 64.3083 21.1546 65.6375 21.3767L65.9672 19.404C64.6433 19.1828 63.3232 18.9567 62.0086 18.7264L61.6635 20.6964ZM69.6192 22.0252C70.9472 22.2357 72.2773 22.4406 73.608 22.6393L73.9033 20.6613C72.5788 20.4635 71.2546 20.2594 69.9324 20.0498L69.6192 22.0252ZM77.6028 23.2164C78.938 23.4025 80.272 23.5817 81.603 23.753L81.8584 21.7694C80.5346 21.599 79.2075 21.4208 77.879 21.2355L77.6028 23.2164ZM85.6078 24.2457C86.9508 24.4031 88.2889 24.5516 89.6204 24.6907L89.8281 22.7015C88.5053 22.5633 87.1755 22.4157 85.8405 22.2593L85.6078 24.2457ZM93.6437 25.083C94.9967 25.2053 96.3408 25.3168 97.6739 25.4165L97.8231 23.4221C96.5007 23.3232 95.167 23.2126 93.8238 23.0912L93.6437 25.083ZM101.71 25.6838C103.073 25.7619 104.421 25.8264 105.753 25.8763L105.828 23.8777C104.51 23.8283 103.175 23.7645 101.825 23.6871L101.71 25.6838ZM109.801 25.983C110.476 25.9929 111.145 25.9986 111.81 26L111.814 24C111.158 23.9986 110.497 23.993 109.831 23.9832L109.801 25.983ZM111.81 26C112.482 26.0014 113.16 25.9984 113.843 25.9911L113.821 23.9912C113.147 23.9984 112.478 24.0014 111.814 24L111.81 26ZM117.94 25.8988C119.289 25.8533 120.654 25.7929 122.033 25.7187L121.925 23.7216C120.559 23.7951 119.207 23.8549 117.873 23.8999L117.94 25.8988ZM126.119 25.4618C127.469 25.3652 128.829 25.2567 130.199 25.1371L130.025 23.1447C128.665 23.2634 127.315 23.3711 125.976 23.4669L126.119 25.4618ZM134.272 24.752C135.62 24.6151 136.975 24.4685 138.335 24.313L138.108 22.326C136.756 22.4806 135.41 22.6262 134.07 22.7622L134.272 24.752ZM142.39 23.825C143.737 23.655 145.088 23.4771 146.44 23.292L146.168 21.3104C144.823 21.4947 143.48 21.6717 142.139 21.8407L142.39 23.825ZM150.484 22.7175C151.832 22.5195 153.178 22.3151 154.523 22.105L154.214 20.129C152.875 20.3382 151.535 20.5417 150.194 20.7388L150.484 22.7175ZM158.554 21.4573C159.9 21.2353 161.242 21.0083 162.578 20.7769L162.237 18.8063C160.906 19.0367 159.569 19.2628 158.229 19.484L158.554 21.4573ZM166.597 20.0655C167.944 19.8219 169.283 19.5746 170.613 19.3244L170.243 17.3589C168.918 17.6082 167.583 17.8547 166.241 18.0975L166.597 20.0655ZM174.624 18.5556C175.972 18.2925 177.308 18.0273 178.629 17.7606L178.234 15.8002C176.916 16.066 175.585 16.3304 174.241 16.5926L174.624 18.5556ZM182.629 16.9408C183.979 16.6598 185.311 16.3782 186.622 16.0971L186.203 14.1415C184.895 14.4218 183.567 14.7026 182.221 14.9828L182.629 16.9408ZM190.61 15.2302C191.965 14.9316 193.294 14.6348 194.594 14.3408L194.152 12.3901C192.856 12.6833 191.531 12.9793 190.18 13.277L190.61 15.2302ZM198.572 13.4294C199.937 13.1129 201.262 12.8015 202.544 12.4967L202.082 10.5509C200.803 10.8549 199.481 11.1655 198.12 11.4811L198.572 13.4294ZM206.503 11.5445C207.888 11.2074 209.209 10.8818 210.459 10.5701L209.976 8.62949C208.729 8.94029 207.412 9.26505 206.03 9.60122L206.503 11.5445ZM214.435 9.567C215.899 9.1932 217.221 8.85029 218.387 8.54464L217.88 6.61004C216.718 6.91466 215.4 7.2565 213.941 7.62921L214.435 9.567ZM222.323 7.4967C222.956 7.32544 223.442 7.19216 223.77 7.1016C223.934 7.05632 224.059 7.02172 224.143 6.99839C224.185 6.98672 224.216 6.97788 224.238 6.97192C224.248 6.96895 224.256 6.96669 224.262 6.96517C224.264 6.96441 224.267 6.96383 224.268 6.96344C224.269 6.96324 224.269 6.96309 224.27 6.96299C224.27 6.96294 224.27 6.96289 224.27 6.96287C224.27 6.96285 224.27 6.96284 224.27 6.96283C224.27 6.96283 224.27 6.96282 224.27 6.96282C224.27 6.96282 224.27 6.96281 224 6C223.73 5.03719 223.73 5.03719 223.73 5.03719C223.73 5.03719 223.73 5.03719 223.73 5.03719C223.73 5.03719 223.73 5.0372 223.73 5.0372C223.73 5.03722 223.73 5.03725 223.729 5.03729C223.729 5.03737 223.729 5.0375 223.728 5.03767C223.727 5.03802 223.725 5.03855 223.722 5.03926C223.717 5.04068 223.71 5.04284 223.699 5.04572C223.679 5.05148 223.648 5.06013 223.607 5.0716C223.524 5.09454 223.401 5.12874 223.238 5.17362C222.913 5.26337 222.43 5.39583 221.801 5.56623L222.323 7.4967ZM1.2709 5.03739C0.739264 4.88778 0.187005 5.19747 0.0373919 5.7291C-0.112221 6.26074 0.197468 6.813 0.729102 6.96261L1.2709 5.03739ZM111.812 25L111.81 26L111.812 25ZM224.872 6.48977C225.142 6.00826 224.971 5.39864 224.49 5.12815L216.643 0.7202C216.162 0.449707 215.552 0.620769 215.281 1.10228C215.011 1.58379 215.182 2.19341 215.664 2.4639L222.638 6.38208L218.72 13.3569C218.45 13.8384 218.621 14.448 219.102 14.7185C219.584 14.989 220.193 14.8179 220.464 14.3364L224.872 6.48977ZM1 6C0.729102 6.96261 0.729113 6.96261 0.729126 6.96261C0.729133 6.96262 0.729149 6.96262 0.729164 6.96263C0.729195 6.96263 0.729236 6.96265 0.729288 6.96266C0.72939 6.96269 0.729533 6.96273 0.729717 6.96278C0.730085 6.96288 0.730616 6.96303 0.731309 6.96323C0.732696 6.96362 0.734732 6.96419 0.737416 6.96494C0.742783 6.96645 0.750739 6.96869 0.761262 6.97163C0.782307 6.97753 0.813619 6.9863 0.855022 6.99785C0.937828 7.02097 1.061 7.05525 1.22313 7.10012C1.54738 7.18985 2.02748 7.32193 2.65216 7.49167L3.1766 5.56166C2.55503 5.39276 2.07793 5.2615 1.75656 5.17257C1.59588 5.1281 1.47413 5.09421 1.39271 5.07149C1.35201 5.06012 1.32138 5.05155 1.30102 5.04585C1.29084 5.04299 1.28323 5.04086 1.2782 5.03944C1.27569 5.03874 1.27382 5.03821 1.2726 5.03787C1.27199 5.0377 1.27154 5.03757 1.27126 5.03749C1.27112 5.03745 1.27102 5.03743 1.27096 5.03741C1.27093 5.0374 1.27091 5.03739 1.2709 5.03739C1.27089 5.03739 1.27089 5.03739 1.27089 5.03739C1.27089 5.03739 1.2709 5.03739 1 6ZM6.54041 8.53062C7.69185 8.83371 8.99791 9.1738 10.4435 9.54462L10.9404 7.60734C9.49909 7.23761 8.19709 6.89858 7.04952 6.59651L6.54041 8.53062ZM14.3709 10.5399C15.606 10.8492 16.9105 11.1724 18.2784 11.507L18.7536 9.56433C17.3894 9.2306 16.0884 8.90826 14.8568 8.59985L14.3709 10.5399ZM22.189 12.4526C23.4556 12.7553 24.7646 13.0646 26.1122 13.379L26.5666 11.4314C25.2226 11.1178 23.9171 10.8093 22.6539 10.5074L22.189 12.4526ZM30.0419 14.2848C31.3256 14.577 32.6381 14.8721 33.9763 15.169L34.4095 13.2165C33.0749 12.9204 31.7661 12.6261 30.4858 12.3347L30.0419 14.2848ZM37.9155 16.0313C39.2109 16.311 40.5264 16.5912 41.8599 16.871L42.2706 14.9136C40.9411 14.6347 39.6293 14.3553 38.3376 14.0764L37.9155 16.0313ZM45.8099 17.6874C47.1149 17.953 48.4342 18.2173 49.7657 18.4795L50.1521 16.5172C48.8249 16.2558 47.5098 15.9923 46.2087 15.7276L45.8099 17.6874ZM53.7274 19.2461C55.0407 19.4957 56.3637 19.7425 57.6944 19.9858L58.054 18.0184C56.728 17.776 55.4097 17.53 54.1007 17.2813L53.7274 19.2461ZM61.6635 20.6964C62.983 20.9275 64.3083 21.1546 65.6375 21.3767L65.9672 19.404C64.6433 19.1828 63.3232 18.9567 62.0086 18.7264L61.6635 20.6964ZM69.6192 22.0252C70.9472 22.2357 72.2773 22.4406 73.608 22.6393L73.9033 20.6613C72.5788 20.4635 71.2546 20.2594 69.9324 20.0498L69.6192 22.0252ZM77.6028 23.2164C78.938 23.4025 80.272 23.5817 81.603 23.753L81.8584 21.7694C80.5346 21.599 79.2075 21.4208 77.879 21.2355L77.6028 23.2164ZM85.6078 24.2457C86.9508 24.4031 88.2889 24.5516 89.6204 24.6907L89.8281 22.7015C88.5053 22.5633 87.1755 22.4157 85.8405 22.2593L85.6078 24.2457ZM93.6437 25.083C94.9967 25.2053 96.3408 25.3168 97.6739 25.4165L97.8231 23.4221C96.5007 23.3232 95.167 23.2126 93.8238 23.0912L93.6437 25.083ZM101.71 25.6838C103.073 25.7619 104.421 25.8264 105.753 25.8763L105.828 23.8777C104.51 23.8283 103.175 23.7645 101.825 23.6871L101.71 25.6838ZM109.801 25.983C110.476 25.9929 111.145 25.9986 111.81 26L111.814 24C111.158 23.9986 110.497 23.993 109.831 23.9832L109.801 25.983ZM111.81 26C112.482 26.0014 113.16 25.9984 113.843 25.9911L113.821 23.9912C113.147 23.9984 112.478 24.0014 111.814 24L111.81 26ZM117.94 25.8988C119.289 25.8533 120.654 25.7929 122.033 25.7187L121.925 23.7216C120.559 23.7951 119.207 23.8549 117.873 23.8999L117.94 25.8988ZM126.119 25.4618C127.469 25.3652 128.829 25.2567 130.199 25.1371L130.025 23.1447C128.665 23.2634 127.315 23.3711 125.976 23.4669L126.119 25.4618ZM134.272 24.752C135.62 24.6151 136.975 24.4685 138.335 24.313L138.108 22.326C136.756 22.4806 135.41 22.6262 134.07 22.7622L134.272 24.752ZM142.39 23.825C143.737 23.655 145.088 23.4771 146.44 23.292L146.168 21.3104C144.823 21.4947 143.48 21.6717 142.139 21.8407L142.39 23.825ZM150.484 22.7175C151.832 22.5195 153.178 22.3151 154.523 22.105L154.214 20.129C152.875 20.3382 151.535 20.5417 150.194 20.7388L150.484 22.7175ZM158.554 21.4573C159.9 21.2353 161.242 21.0083 162.578 20.7769L162.237 18.8063C160.906 19.0367 159.569 19.2628 158.229 19.484L158.554 21.4573ZM166.597 20.0655C167.944 19.8219 169.283 19.5746 170.613 19.3244L170.243 17.3589C168.918 17.6082 167.583 17.8547 166.241 18.0975L166.597 20.0655ZM174.624 18.5556C175.972 18.2925 177.308 18.0273 178.629 17.7606L178.234 15.8002C176.916 16.066 175.585 16.3304 174.241 16.5926L174.624 18.5556ZM182.629 16.9408C183.979 16.6598 185.311 16.3782 186.622 16.0971L186.203 14.1415C184.895 14.4218 183.567 14.7026 182.221 14.9828L182.629 16.9408ZM190.61 15.2302C191.965 14.9316 193.294 14.6348 194.594 14.3408L194.152 12.3901C192.856 12.6833 191.531 12.9793 190.18 13.277L190.61 15.2302ZM198.572 13.4294C199.937 13.1129 201.262 12.8015 202.544 12.4967L202.082 10.5509C200.803 10.8549 199.481 11.1655 198.12 11.4811L198.572 13.4294ZM206.503 11.5445C207.888 11.2074 209.209 10.8818 210.459 10.5701L209.976 8.62949C208.729 8.94029 207.412 9.26505 206.03 9.60122L206.503 11.5445ZM214.435 9.567C215.899 9.1932 217.221 8.85029 218.387 8.54464L217.88 6.61004C216.718 6.91466 215.4 7.2565 213.941 7.62921L214.435 9.567ZM222.323 7.4967C222.956 7.32544 223.442 7.19216 223.77 7.1016C223.934 7.05632 224.059 7.02172 224.143 6.99839C224.185 6.98672 224.216 6.97788 224.238 6.97192C224.248 6.96895 224.256 6.96669 224.262 6.96517C224.264 6.96441 224.267 6.96383 224.268 6.96344C224.269 6.96324 224.269 6.96309 224.27 6.96299C224.27 6.96294 224.27 6.96289 224.27 6.96287C224.27 6.96285 224.27 6.96284 224.27 6.96283C224.27 6.96283 224.27 6.96282 224.27 6.96282C224.27 6.96282 224.27 6.96281 224 6C223.73 5.03719 223.73 5.03719 223.73 5.03719C223.73 5.03719 223.73 5.03719 223.73 5.03719C223.73 5.03719 223.73 5.0372 223.73 5.0372C223.73 5.03722 223.73 5.03725 223.729 5.03729C223.729 5.03737 223.729 5.0375 223.728 5.03767C223.727 5.03802 223.725 5.03855 223.722 5.03926C223.717 5.04068 223.71 5.04284 223.699 5.04572C223.679 5.05148 223.648 5.06013 223.607 5.0716C223.524 5.09454 223.401 5.12874 223.238 5.17362C222.913 5.26337 222.43 5.39583 221.801 5.56623L222.323 7.4967Z" fill="#B4B8B7"/>
</svg>
