<svg width="225" height="26" viewBox="0 0 225 26" fill="none" xmlns="http://www.w3.org/2000/svg">
<path d="M1.2709 20.9626C0.739264 21.1122 0.187005 20.8025 0.0373919 20.2709C-0.112221 19.7393 0.197468 19.187 0.729102 19.0374L1.2709 20.9626ZM111.812 1L111.81 1.90735e-06L111.812 1ZM224.872 19.5102C225.142 19.9917 224.971 20.6014 224.49 20.8719L216.643 25.2798C216.162 25.5503 215.552 25.3792 215.281 24.8977C215.011 24.4162 215.182 23.8066 215.664 23.5361L222.638 19.6179L218.72 12.6431C218.45 12.1616 218.621 11.552 219.102 11.2815C219.584 11.011 220.193 11.1821 220.464 11.6636L224.872 19.5102ZM1 20C0.729102 19.0374 0.729113 19.0374 0.729126 19.0374C0.729133 19.0374 0.729149 19.0374 0.729164 19.0374C0.729195 19.0374 0.729236 19.0374 0.729288 19.0373C0.72939 19.0373 0.729533 19.0373 0.729717 19.0372C0.730085 19.0371 0.730616 19.037 0.731309 19.0368C0.732696 19.0364 0.734732 19.0358 0.737416 19.0351C0.742783 19.0335 0.750739 19.0313 0.761262 19.0284C0.782307 19.0225 0.813619 19.0137 0.855022 19.0021C0.937828 18.979 1.061 18.9448 1.22313 18.8999C1.54738 18.8101 2.02748 18.6781 2.65216 18.5083L3.1766 20.4383C2.55503 20.6072 2.07793 20.7385 1.75656 20.8274C1.59588 20.8719 1.47413 20.9058 1.39271 20.9285C1.35201 20.9399 1.32138 20.9484 1.30102 20.9542C1.29084 20.957 1.28323 20.9591 1.2782 20.9606C1.27569 20.9613 1.27382 20.9618 1.2726 20.9621C1.27199 20.9623 1.27154 20.9624 1.27126 20.9625C1.27112 20.9625 1.27102 20.9626 1.27096 20.9626C1.27093 20.9626 1.27091 20.9626 1.2709 20.9626C1.27089 20.9626 1.27089 20.9626 1.27089 20.9626C1.27089 20.9626 1.2709 20.9626 1 20ZM6.54041 17.4694C7.69185 17.1663 8.99791 16.8262 10.4435 16.4554L10.9404 18.3927C9.49909 18.7624 8.19709 19.1014 7.04952 19.4035L6.54041 17.4694ZM14.3709 15.4601C15.606 15.1508 16.9105 14.8276 18.2784 14.493L18.7536 16.4357C17.3894 16.7694 16.0884 17.0917 14.8568 17.4002L14.3709 15.4601ZM22.189 13.5474C23.4556 13.2447 24.7646 12.9354 26.1122 12.621L26.5666 14.5686C25.2226 14.8822 23.9171 15.1907 22.6539 15.4926L22.189 13.5474ZM30.0419 11.7152C31.3256 11.423 32.6381 11.1279 33.9763 10.831L34.4095 12.7835C33.0749 13.0796 31.7661 13.3739 30.4858 13.6653L30.0419 11.7152ZM37.9155 9.96869C39.2109 9.68898 40.5264 9.40876 41.8599 9.12897L42.2706 11.0864C40.9411 11.3653 39.6293 11.6447 38.3376 11.9236L37.9155 9.96869ZM45.8099 8.31259C47.1149 8.04701 48.4342 7.78269 49.7657 7.5205L50.1521 9.48281C48.8249 9.74417 47.5098 10.0077 46.2087 10.2724L45.8099 8.31259ZM53.7274 6.7539C55.0407 6.50432 56.3637 6.25751 57.6944 6.01424L58.054 7.98163C56.728 8.22404 55.4097 8.46999 54.1007 8.71874L53.7274 6.7539ZM61.6635 5.30363C62.983 5.07246 64.3083 4.84544 65.6375 4.62331L65.9672 6.59595C64.6433 6.8172 63.3232 7.04333 62.0086 7.27362L61.6635 5.30363ZM69.6192 3.97482C70.9472 3.76432 72.2773 3.55935 73.608 3.36066L73.9033 5.33873C72.5788 5.53651 71.2546 5.74055 69.9324 5.95016L69.6192 3.97482ZM77.6028 2.78364C78.938 2.59746 80.272 2.41833 81.603 2.24696L81.8584 4.23058C80.5346 4.40102 79.2075 4.57923 77.879 4.76447L77.6028 2.78364ZM85.6078 1.75426C86.9508 1.59694 88.2889 1.44839 89.6204 1.30934L89.8281 3.29853C88.5053 3.43666 87.1755 3.5843 85.8405 3.74067L85.6078 1.75426ZM93.6437 0.916956C94.9967 0.794653 96.3408 0.68322 97.6739 0.583496L97.8231 2.57792C96.5007 2.67684 95.167 2.78741 93.8238 2.90883L93.6437 0.916956ZM101.71 0.316162C103.073 0.238098 104.421 0.17363 105.753 0.123709L105.828 2.12231C104.51 2.17171 103.175 2.23553 101.825 2.31289L101.71 0.316162ZM109.801 0.0170059C110.476 0.00709152 111.145 0.00137901 111.81 1.90735e-06L111.814 2C111.158 2.00136 110.497 2.00699 109.831 2.01679L109.801 0.0170059ZM111.81 1.90735e-06C112.482 -0.00139046 113.16 0.00163841 113.843 0.00894928L113.821 2.00883C113.147 2.00161 112.478 1.99862 111.814 2L111.81 1.90735e-06ZM117.94 0.101194C119.289 0.146723 120.654 0.207088 122.033 0.281328L121.925 2.27844C120.559 2.20488 119.207 2.14511 117.873 2.10006L117.94 0.101194ZM126.119 0.538223C127.469 0.634783 128.829 0.743294 130.199 0.862909L130.025 2.85533C128.665 2.73658 127.315 2.6289 125.976 2.53312L126.119 0.538223ZM134.272 1.24801C135.62 1.38487 136.975 1.53146 138.335 1.68699L138.108 3.67404C136.756 3.51942 135.41 3.37375 134.07 3.23779L134.272 1.24801ZM142.39 2.17498C143.737 2.34497 145.088 2.52291 146.44 2.70805L146.168 4.68955C144.823 4.50533 143.48 4.32832 142.139 4.15925L142.39 2.17498ZM150.484 3.28248C151.832 3.48047 153.178 3.68489 154.523 3.89499L154.214 5.87101C152.875 5.66181 151.535 5.4583 150.194 5.26122L150.484 3.28248ZM158.554 4.5427C159.9 4.76472 161.242 4.99175 162.578 5.22306L162.237 7.19374C160.906 6.9633 159.569 6.73715 158.229 6.51603L158.554 4.5427ZM166.597 5.93446C167.944 6.17812 169.283 6.42544 170.613 6.67564L170.243 8.64115C168.918 8.39179 167.583 8.14533 166.241 7.90254L166.597 5.93446ZM174.624 7.44442C175.972 7.70747 177.308 7.97273 178.629 8.23935L178.234 10.1998C176.916 9.93404 175.585 9.66961 174.241 9.4074L174.624 7.44442ZM182.629 9.05919C183.979 9.34023 185.311 9.62181 186.622 9.90293L186.203 11.8585C184.895 11.5782 183.567 11.2974 182.221 11.0172L182.629 9.05919ZM190.61 10.7698C191.965 11.0684 193.294 11.3652 194.594 11.6592L194.152 13.6099C192.856 13.3167 191.531 13.0207 190.18 12.723L190.61 10.7698ZM198.572 12.5706C199.937 12.8871 201.262 13.1985 202.544 13.5033L202.082 15.4491C200.803 15.1451 199.481 14.8345 198.12 14.5189L198.572 12.5706ZM206.503 14.4555C207.888 14.7926 209.209 15.1182 210.459 15.4299L209.976 17.3705C208.729 17.0597 207.412 16.735 206.03 16.3988L206.503 14.4555ZM214.435 16.433C215.899 16.8068 217.221 17.1497 218.387 17.4554L217.88 19.39C216.718 19.0853 215.4 18.7435 213.941 18.3708L214.435 16.433ZM222.323 18.5033C222.956 18.6746 223.442 18.8078 223.77 18.8984C223.934 18.9437 224.059 18.9783 224.143 19.0016C224.185 19.0133 224.216 19.0221 224.238 19.0281C224.248 19.0311 224.256 19.0333 224.262 19.0348C224.264 19.0356 224.267 19.0362 224.268 19.0366C224.269 19.0368 224.269 19.0369 224.27 19.037C224.27 19.0371 224.27 19.0371 224.27 19.0371C224.27 19.0371 224.27 19.0372 224.27 19.0372C224.27 19.0372 224.27 19.0372 224.27 19.0372C224.27 19.0372 224.27 19.0372 224 20C223.73 20.9628 223.73 20.9628 223.73 20.9628C223.73 20.9628 223.73 20.9628 223.73 20.9628C223.73 20.9628 223.73 20.9628 223.73 20.9628C223.73 20.9628 223.73 20.9627 223.729 20.9627C223.729 20.9626 223.729 20.9625 223.728 20.9623C223.727 20.962 223.725 20.9615 223.722 20.9607C223.717 20.9593 223.71 20.9572 223.699 20.9543C223.679 20.9485 223.648 20.9399 223.607 20.9284C223.524 20.9055 223.401 20.8713 223.238 20.8264C222.913 20.7366 222.43 20.6042 221.801 20.4338L222.323 18.5033ZM1.2709 20.9626C0.739264 21.1122 0.187005 20.8025 0.0373919 20.2709C-0.112221 19.7393 0.197468 19.187 0.729102 19.0374L1.2709 20.9626ZM111.812 1L111.81 1.90735e-06L111.812 1ZM224.872 19.5102C225.142 19.9917 224.971 20.6014 224.49 20.8719L216.643 25.2798C216.162 25.5503 215.552 25.3792 215.281 24.8977C215.011 24.4162 215.182 23.8066 215.664 23.5361L222.638 19.6179L218.72 12.6431C218.45 12.1616 218.621 11.552 219.102 11.2815C219.584 11.011 220.193 11.1821 220.464 11.6636L224.872 19.5102ZM1 20C0.729102 19.0374 0.729113 19.0374 0.729126 19.0374C0.729133 19.0374 0.729149 19.0374 0.729164 19.0374C0.729195 19.0374 0.729236 19.0374 0.729288 19.0373C0.72939 19.0373 0.729533 19.0373 0.729717 19.0372C0.730085 19.0371 0.730616 19.037 0.731309 19.0368C0.732696 19.0364 0.734732 19.0358 0.737416 19.0351C0.742783 19.0335 0.750739 19.0313 0.761262 19.0284C0.782307 19.0225 0.813619 19.0137 0.855022 19.0021C0.937828 18.979 1.061 18.9448 1.22313 18.8999C1.54738 18.8101 2.02748 18.6781 2.65216 18.5083L3.1766 20.4383C2.55503 20.6072 2.07793 20.7385 1.75656 20.8274C1.59588 20.8719 1.47413 20.9058 1.39271 20.9285C1.35201 20.9399 1.32138 20.9484 1.30102 20.9542C1.29084 20.957 1.28323 20.9591 1.2782 20.9606C1.27569 20.9613 1.27382 20.9618 1.2726 20.9621C1.27199 20.9623 1.27154 20.9624 1.27126 20.9625C1.27112 20.9625 1.27102 20.9626 1.27096 20.9626C1.27093 20.9626 1.27091 20.9626 1.2709 20.9626C1.27089 20.9626 1.27089 20.9626 1.27089 20.9626C1.27089 20.9626 1.2709 20.9626 1 20ZM6.54041 17.4694C7.69185 17.1663 8.99791 16.8262 10.4435 16.4554L10.9404 18.3927C9.49909 18.7624 8.19709 19.1014 7.04952 19.4035L6.54041 17.4694ZM14.3709 15.4601C15.606 15.1508 16.9105 14.8276 18.2784 14.493L18.7536 16.4357C17.3894 16.7694 16.0884 17.0917 14.8568 17.4002L14.3709 15.4601ZM22.189 13.5474C23.4556 13.2447 24.7646 12.9354 26.1122 12.621L26.5666 14.5686C25.2226 14.8822 23.9171 15.1907 22.6539 15.4926L22.189 13.5474ZM30.0419 11.7152C31.3256 11.423 32.6381 11.1279 33.9763 10.831L34.4095 12.7835C33.0749 13.0796 31.7661 13.3739 30.4858 13.6653L30.0419 11.7152ZM37.9155 9.96869C39.2109 9.68898 40.5264 9.40876 41.8599 9.12897L42.2706 11.0864C40.9411 11.3653 39.6293 11.6447 38.3376 11.9236L37.9155 9.96869ZM45.8099 8.31259C47.1149 8.04701 48.4342 7.78269 49.7657 7.5205L50.1521 9.48281C48.8249 9.74417 47.5098 10.0077 46.2087 10.2724L45.8099 8.31259ZM53.7274 6.7539C55.0407 6.50432 56.3637 6.25751 57.6944 6.01424L58.054 7.98163C56.728 8.22404 55.4097 8.46999 54.1007 8.71874L53.7274 6.7539ZM61.6635 5.30363C62.983 5.07246 64.3083 4.84544 65.6375 4.62331L65.9672 6.59595C64.6433 6.8172 63.3232 7.04333 62.0086 7.27362L61.6635 5.30363ZM69.6192 3.97482C70.9472 3.76432 72.2773 3.55935 73.608 3.36066L73.9033 5.33873C72.5788 5.53651 71.2546 5.74055 69.9324 5.95016L69.6192 3.97482ZM77.6028 2.78364C78.938 2.59746 80.272 2.41833 81.603 2.24696L81.8584 4.23058C80.5346 4.40102 79.2075 4.57923 77.879 4.76447L77.6028 2.78364ZM85.6078 1.75426C86.9508 1.59694 88.2889 1.44839 89.6204 1.30934L89.8281 3.29853C88.5053 3.43666 87.1755 3.5843 85.8405 3.74067L85.6078 1.75426ZM93.6437 0.916956C94.9967 0.794653 96.3408 0.68322 97.6739 0.583496L97.8231 2.57792C96.5007 2.67684 95.167 2.78741 93.8238 2.90883L93.6437 0.916956ZM101.71 0.316162C103.073 0.238098 104.421 0.17363 105.753 0.123709L105.828 2.12231C104.51 2.17171 103.175 2.23553 101.825 2.31289L101.71 0.316162ZM109.801 0.0170059C110.476 0.00709152 111.145 0.00137901 111.81 1.90735e-06L111.814 2C111.158 2.00136 110.497 2.00699 109.831 2.01679L109.801 0.0170059ZM111.81 1.90735e-06C112.482 -0.00139046 113.16 0.00163841 113.843 0.00894928L113.821 2.00883C113.147 2.00161 112.478 1.99862 111.814 2L111.81 1.90735e-06ZM117.94 0.101194C119.289 0.146723 120.654 0.207088 122.033 0.281328L121.925 2.27844C120.559 2.20488 119.207 2.14511 117.873 2.10006L117.94 0.101194ZM126.119 0.538223C127.469 0.634783 128.829 0.743294 130.199 0.862909L130.025 2.85533C128.665 2.73658 127.315 2.6289 125.976 2.53312L126.119 0.538223ZM134.272 1.24801C135.62 1.38487 136.975 1.53146 138.335 1.68699L138.108 3.67404C136.756 3.51942 135.41 3.37375 134.07 3.23779L134.272 1.24801ZM142.39 2.17498C143.737 2.34497 145.088 2.52291 146.44 2.70805L146.168 4.68955C144.823 4.50533 143.48 4.32832 142.139 4.15925L142.39 2.17498ZM150.484 3.28248C151.832 3.48047 153.178 3.68489 154.523 3.89499L154.214 5.87101C152.875 5.66181 151.535 5.4583 150.194 5.26122L150.484 3.28248ZM158.554 4.5427C159.9 4.76472 161.242 4.99175 162.578 5.22306L162.237 7.19374C160.906 6.9633 159.569 6.73715 158.229 6.51603L158.554 4.5427ZM166.597 5.93446C167.944 6.17812 169.283 6.42544 170.613 6.67564L170.243 8.64115C168.918 8.39179 167.583 8.14533 166.241 7.90254L166.597 5.93446ZM174.624 7.44442C175.972 7.70747 177.308 7.97273 178.629 8.23935L178.234 10.1998C176.916 9.93404 175.585 9.66961 174.241 9.4074L174.624 7.44442ZM182.629 9.05919C183.979 9.34023 185.311 9.62181 186.622 9.90293L186.203 11.8585C184.895 11.5782 183.567 11.2974 182.221 11.0172L182.629 9.05919ZM190.61 10.7698C191.965 11.0684 193.294 11.3652 194.594 11.6592L194.152 13.6099C192.856 13.3167 191.531 13.0207 190.18 12.723L190.61 10.7698ZM198.572 12.5706C199.937 12.8871 201.262 13.1985 202.544 13.5033L202.082 15.4491C200.803 15.1451 199.481 14.8345 198.12 14.5189L198.572 12.5706ZM206.503 14.4555C207.888 14.7926 209.209 15.1182 210.459 15.4299L209.976 17.3705C208.729 17.0597 207.412 16.735 206.03 16.3988L206.503 14.4555ZM214.435 16.433C215.899 16.8068 217.221 17.1497 218.387 17.4554L217.88 19.39C216.718 19.0853 215.4 18.7435 213.941 18.3708L214.435 16.433ZM222.323 18.5033C222.956 18.6746 223.442 18.8078 223.77 18.8984C223.934 18.9437 224.059 18.9783 224.143 19.0016C224.185 19.0133 224.216 19.0221 224.238 19.0281C224.248 19.0311 224.256 19.0333 224.262 19.0348C224.264 19.0356 224.267 19.0362 224.268 19.0366C224.269 19.0368 224.269 19.0369 224.27 19.037C224.27 19.0371 224.27 19.0371 224.27 19.0371C224.27 19.0371 224.27 19.0372 224.27 19.0372C224.27 19.0372 224.27 19.0372 224.27 19.0372C224.27 19.0372 224.27 19.0372 224 20C223.73 20.9628 223.73 20.9628 223.73 20.9628C223.73 20.9628 223.73 20.9628 223.73 20.9628C223.73 20.9628 223.73 20.9628 223.73 20.9628C223.73 20.9628 223.73 20.9627 223.729 20.9627C223.729 20.9626 223.729 20.9625 223.728 20.9623C223.727 20.962 223.725 20.9615 223.722 20.9607C223.717 20.9593 223.71 20.9572 223.699 20.9543C223.679 20.9485 223.648 20.9399 223.607 20.9284C223.524 20.9055 223.401 20.8713 223.238 20.8264C222.913 20.7366 222.43 20.6042 221.801 20.4338L222.323 18.5033Z" fill="#B4B8B7"/>
</svg>
